<svg width="56" height="56" viewBox="0 0 56 56" fill="none" xmlns="http://www.w3.org/2000/svg">
<path d="M9.3144 17.0007L14.5017 25.0656L18.1744 36.3868L17.6444 47.4429L20.7492 54.5233L28.7383 51.002L34.7965 51.6836L48.9574 44.1866L56 45.0953V44.6788L55.3942 43.4294L51.835 36.5382L51.0778 34.1528L47.405 29.0413L38.2042 16.3191L38.1285 15.0318L32.714 2.30968L31.0101 1.47668L28.9655 2.23395L28.8141 4.61935L28.7383 7.45911L25.2928 9.8445L22.1501 10.3746L20.3705 9.99595L11.1697 9.73091L9.35226 10.6018L6.73969 10.1474L0.378634 11.4348L0 11.7755L9.3144 17.0007Z" fill="#ADEBAD"/>
</svg>
