<svg width="56" height="56" viewBox="0 0 56 56" fill="none" xmlns="http://www.w3.org/2000/svg">
<path d="M48.9471 7.71118L32.5844 12.5072L27.6003 18.3846L1.2225 11.1436L1.17548 11.3787L0 19.0899L14.2939 41.2359L15.6574 41.283L16.6919 40.3896L18.5256 41.1889L19.1839 44.2922L21.1117 46.22L22.8984 46.314L24.0269 44.4803L26.3308 46.4081L27.1772 48.1008L29.9513 48.2888V46.0319L31.4559 44.8564L33.4307 42.1293L32.8665 36.7221L32.6784 34.7943L37.3333 35.7347L43.822 35.5466L46.9723 31.2679L48.9471 28.1646L49.4173 25.9547L51.7212 24.1679L52.2855 20.7355L53.7901 20.2653L56 11.1906L48.9471 7.71118Z" fill="#ADEBAD"/>
</svg>
