<svg width="57" height="56" viewBox="0 0 57 56" fill="none" xmlns="http://www.w3.org/2000/svg">
<path d="M47.9344 0.977982L40.2381 0L24.8455 8.16401L24.1652 16.7532L17.3193 19.6872L13.535 28.0638L14.3004 43.839L3.41502 46.6454L2.86224 49.6644L26.0361 56L30.2457 51.0251L45.8934 46.4328L52.4416 49.6644L54.27 42.2232L54.7377 37.8861L53.2495 36.6105L51.3786 36.7806L50.1455 33.8466L49.3801 30.615L50.4856 28.6166L51.8038 22.7062L50.8258 20.8778L50.6557 19.1769L51.7187 18.1139L51.8888 14.6697L49.9754 9.35459L50.1455 5.74032L50.0604 4.37965L47.9344 1.27563V0.977982Z" fill="#ADEBAD"/>
</svg>
