<svg width="57" height="56" viewBox="0 0 57 56" fill="none" xmlns="http://www.w3.org/2000/svg">
<path d="M3.9949 22.8732L5.81768 23.7496L6.02022 25.4147L10.1215 26.3787L5.41262 28.3067L6.12148 30.3662L9.21009 32.0313L13.2101 29.7966L14.4253 30.7606L14.324 34.047L12.1974 34.4851L11.0835 38.0344L12.1974 39.349H14.0202L18.0202 43.1612L17.7671 43.8185L24.0962 51.7058L40.9569 56L56.4 49.2081L52.0962 40.7074L52.805 27.8247L48.0455 15.1174L41.4126 6.13458L28.805 0L25.1088 2.76056V4.5133L19.6911 10.385L16.7038 10.9984L15.8936 16.7387L13.0076 17.7027L9.86832 15.5117L2.88098 15.3365L0.399963 16.651V19.6745L2.57718 20.5509L3.9949 22.8732ZM19.3873 18.4038L21.5645 19.8936L23.0835 16.6948L25.4126 16.5196L26.7797 12.8826L31.286 13.1017L32.7038 17.133L31.7417 19.1049L33.5139 19.3678L34.1721 22.4351L29.4126 26.1596H21.5645L17.5645 20.9014L19.3873 18.4038Z" fill="#ADEBAD"/>
</svg>
