<svg width="57" height="56" viewBox="0 0 57 56" fill="none" xmlns="http://www.w3.org/2000/svg">
<path d="M43.8956 10.0716L39.2568 11.2836L36.624 7.14624H11.8001L11.1732 8.02385L6.57622 17.2597L6.82696 18.5134L5.65681 19.5164L3.60905 20.1851L2.10458 21.9821L3.77622 24.7821H6.57622L7.53741 27.5403L7.32846 31.4268L6.49263 32.7224L5.90756 36.3582V38.5313L3.35831 40.4955L0.600098 43.003L1.10159 44.5492L3.27472 47.1403L8.45681 46.0537L9.96129 44.6328L10.7135 42.5015L11.8419 43.2537L11.3404 46.1373L13.6807 48.8537L16.7314 48.0179L18.4031 48.8537H20.5344L21.7046 46.388L24.0031 45.1343L23.8359 43.8806L25.2568 43.2537L26.8031 41.8328L27.6389 39.2L29.8538 36.6925L28.7255 39.2836L28.4747 41.4985L28.9762 43.797L32.3613 44.1313L35.2449 43.4209L40.7195 39.5343L41.3464 37.4447L44.1882 37.6955L46.9046 39.6179L48.0747 38.8656L48.9523 37.2776V34.394L51.3762 34.5612L54.8449 35.5642L55.9314 33.7253L56.3076 31.4268L56.6001 29.797L43.8956 10.0716Z" fill="#ADEBAD"/>
</svg>
