<svg width="56" height="57" viewBox="0 0 56 57" fill="none" xmlns="http://www.w3.org/2000/svg">
<path d="M18.6667 28.5H18.6877M27.979 28.5H28M37.3123 28.5H37.3333" stroke="white" stroke-width="4" stroke-linecap="round" stroke-linejoin="round"/>
<path d="M28 51.8333C40.8867 51.8333 51.3333 41.3866 51.3333 28.5C51.3333 15.6133 40.8867 5.16666 28 5.16666C15.1134 5.16666 4.66669 15.6133 4.66669 28.5C4.66669 32.2326 5.54313 35.7605 7.10143 38.8891C7.51554 39.7205 7.65338 40.6708 7.4133 41.5681L6.02355 46.7622C5.42025 49.0169 7.48306 51.0797 9.73783 50.4765L14.9319 49.0867C15.8292 48.8466 16.7795 48.9845 17.6109 49.3986C20.7395 50.9569 24.2674 51.8333 28 51.8333Z" stroke="white" stroke-width="3.5"/>
</svg>
