<svg width="56" height="57" viewBox="0 0 56 57" fill="none" xmlns="http://www.w3.org/2000/svg">
<path d="M37.3333 9.83737C42.4084 9.86562 45.1569 10.0907 46.9497 11.8836C49 13.9338 49 17.2337 49 23.8333V37.8333C49 44.433 49 47.7328 46.9497 49.7831C44.8995 51.8333 41.5997 51.8333 35 51.8333H21C14.4003 51.8333 11.1005 51.8333 9.05025 49.7831C7 47.7328 7 44.433 7 37.8333V23.8333C7 17.2337 7 13.9338 9.05025 11.8836C10.8431 10.0907 13.5916 9.86562 18.6667 9.83737" stroke="white" stroke-width="3.5"/>
<path d="M24.5 33.1667H39.6667" stroke="white" stroke-width="3.5" stroke-linecap="round"/>
<path d="M16.3334 33.1667H17.5" stroke="white" stroke-width="3.5" stroke-linecap="round"/>
<path d="M16.3334 25H17.5" stroke="white" stroke-width="3.5" stroke-linecap="round"/>
<path d="M16.3334 41.3333H17.5" stroke="white" stroke-width="3.5" stroke-linecap="round"/>
<path d="M24.5 25H39.6667" stroke="white" stroke-width="3.5" stroke-linecap="round"/>
<path d="M24.5 41.3333H39.6667" stroke="white" stroke-width="3.5" stroke-linecap="round"/>
<path d="M18.6666 8.66665C18.6666 6.73366 20.2336 5.16666 22.1666 5.16666H33.8333C35.7663 5.16666 37.3333 6.73366 37.3333 8.66665V11C37.3333 12.933 35.7663 14.5 33.8333 14.5H22.1666C20.2336 14.5 18.6666 12.933 18.6666 11V8.66665Z" stroke="white" stroke-width="3.5"/>
</svg>
