<svg width="12" height="12" viewBox="0 0 12 12" fill="none" xmlns="http://www.w3.org/2000/svg">
<g clip-path="url(#clip0_281_48)">
<path d="M1.73223 10.2678C2.46447 11 3.64298 11 6 11C8.35702 11 9.53553 11 10.2678 10.2678C11 9.53553 11 8.35702 11 6C11 5.82927 11 5.7439 10.9924 5.6571C10.9571 5.25245 10.793 4.85628 10.5318 4.54517C10.4758 4.47843 10.414 4.41658 10.2903 4.29289L7.70711 1.70972C7.58342 1.58603 7.52157 1.52417 7.45483 1.46816C7.14372 1.207 6.74756 1.0429 6.3429 1.00758C6.2561 1 6.17073 1 6 1C3.64298 1 2.46447 1 1.73223 1.73223C1 2.46447 1 3.64298 1 6C1 8.35702 1 9.53553 1.73223 10.2678Z" stroke="#1C274C" stroke-width="0.75"/>
<path d="M8.5 11V10.5C8.5 9.55719 8.5 9.08579 8.20711 8.79289C7.91421 8.5 7.44281 8.5 6.5 8.5H5.5C4.55719 8.5 4.08579 8.5 3.79289 8.79289C3.5 9.08579 3.5 9.55719 3.5 10.5V11" stroke="#1C274C" stroke-width="0.75"/>
<path d="M3.5 4H6.5" stroke="#1C274C" stroke-width="0.75" stroke-linecap="round"/>
</g>
<defs>
<clipPath id="clip0_281_48">
<rect width="12" height="12" fill="white"/>
</clipPath>
</defs>
</svg>
