<svg width="12" height="12" viewBox="0 0 12 12" fill="none" xmlns="http://www.w3.org/2000/svg">
<g clip-path="url(#clip0_281_44)">
<path d="M1 6C1 3.64298 1 2.46447 1.73223 1.73223C2.46447 1 3.64298 1 6 1C8.35702 1 9.53553 1 10.2678 1.73223C11 2.46447 11 3.64298 11 6C11 8.35702 11 9.53553 10.2678 10.2678C9.53553 11 8.35702 11 6 11C3.64298 11 2.46447 11 1.73223 10.2678C1 9.53553 1 8.35702 1 6Z" stroke="#1C274C" stroke-width="0.75"/>
<path d="M7.5 3.5H5C4.72386 3.5 4.5 3.72386 4.5 4V6M7.5 8.5H5C4.72386 8.5 4.5 8.27614 4.5 8V6M4.5 6H7.5" stroke="#1C274C" stroke-width="0.75" stroke-linecap="round"/>
</g>
<defs>
<clipPath id="clip0_281_44">
<rect width="12" height="12" fill="white"/>
</clipPath>
</defs>
</svg>
