<svg width="152" height="39" viewBox="0 0 152 39" fill="none" xmlns="http://www.w3.org/2000/svg">
<path d="M67.3596 9.72205L67.9897 13.5477L84.4633 12.6384C84.2643 14.384 83.9541 16.2332 83.5324 18.1885L87.9475 18.6266C88.3573 16.808 88.6628 15.1166 88.8618 13.5548C89.0608 11.993 89.1863 10.629 89.2408 9.46292C89.2929 8.29685 89.3237 6.94231 89.3355 5.39461V2.25916H68.3379V5.86575H84.8423C84.8423 6.86929 84.8115 7.97647 84.7475 9.18966L67.3596 9.72205Z" fill="white"/>
<path d="M79.0582 15.2085H74.5484V21.9505H65.3748V25.6184H91.7634V21.9505H79.0582V15.2085Z" fill="white"/>
<path d="M98 12.2214H92V16.2214H98V12.2214Z" fill="white"/>
<path d="M107.119 23.6443H123.23V15.8044H102.579V19.2226H118.721V20.4452H102.609V28.4405H124.239V24.9917H107.119V23.6443Z" fill="white"/>
<path d="M123.048 7.40165C123.105 6.32509 123.136 5.02944 123.136 3.51236V0.909302H102.894V4.42167H118.595L118.578 5.73851L102.074 6.0212L102.579 9.43934L118.375 8.84334C118.311 9.46996 118.216 10.1508 118.091 10.881H99.8049V14.4547H126.037V10.881H122.631C122.851 9.63722 122.991 8.47821 123.048 7.39929V7.40165Z" fill="white"/>
<path d="M150.273 0H145.765V21.1967H150.273V0Z" fill="white"/>
<path d="M135.204 24.6785V19.3805H130.663V28.2851H151V24.6785H135.204Z" fill="white"/>
<path d="M144.159 16.7444L143.686 13.1378C142.025 13.4723 140.344 13.6961 138.64 13.8115C136.937 13.9269 134.72 13.9953 131.987 14.0165V11.2579H140.94V1.85156H127.508V5.39455H136.461V7.96699H127.539V17.656H130.125C133.541 17.656 136.26 17.5971 138.283 17.4747C140.306 17.3545 142.264 17.1119 144.155 16.7467L144.159 16.7444Z" fill="white"/>
<path d="M0 20.3132C7.82586 23.5009 17.482 28.5522 25.5588 19.361C33.6329 10.1697 37.2144 6.15468 51.9496 11.122C40.9187 1.06259 31.7181 -2.95248 22.6429 5.86711C13.5705 14.684 11.3637 21.3902 0 20.3132Z" fill="white"/>
<path d="M11.9038 27.9718C22.7684 36.6232 30.927 42.2958 41.0005 33.27C51.074 24.2443 52.4897 17.3725 63.728 18.7805C51.906 12.6955 44.372 12.2804 36.6716 21.1814C28.9712 30.0824 25.8916 31.6966 11.9038 27.9718Z" fill="white"/>
<path d="M66.2109 32C66.5729 31.9974 66.901 32.0703 67.1953 32.2188C67.4922 32.3672 67.7253 32.5742 67.8945 32.8398C68.0638 33.1029 68.1484 33.3984 68.1484 33.7266C68.1484 34.0625 68.0638 34.3633 67.8945 34.6289C67.7253 34.8919 67.4935 35.0977 67.1992 35.2461C66.9049 35.3945 66.5755 35.4688 66.2109 35.4688C65.8438 35.4688 65.5117 35.3945 65.2148 35.2461C64.918 35.0977 64.6836 34.8919 64.5117 34.6289C64.3424 34.3633 64.2578 34.0625 64.2578 33.7266C64.2578 33.3984 64.3424 33.1029 64.5117 32.8398C64.6836 32.5742 64.918 32.3672 65.2148 32.2188C65.5143 32.0703 65.8464 31.9974 66.2109 32ZM66.2109 32.8516C66.0234 32.8516 65.8555 32.8867 65.707 32.957C65.5586 33.0247 65.4427 33.125 65.3594 33.2578C65.2786 33.3906 65.2396 33.5469 65.2422 33.7266C65.2396 33.9115 65.2786 34.0716 65.3594 34.207C65.4427 34.3424 65.5586 34.4466 65.707 34.5195C65.8555 34.5898 66.0234 34.625 66.2109 34.625C66.3932 34.625 66.5573 34.5898 66.7031 34.5195C66.849 34.4466 66.9635 34.3424 67.0469 34.207C67.1328 34.0716 67.1771 33.9115 67.1797 33.7266C67.1771 33.5469 67.1328 33.3906 67.0469 33.2578C66.9635 33.125 66.849 33.0247 66.7031 32.957C66.5573 32.8867 66.3932 32.8516 66.2109 32.8516ZM69.8516 33.2812H70.8125V34.0938H69.8516V35.7656H68.8516V31.6094H69.8516V33.2812ZM69.8516 38.7266H68.8516V36.8672H65.0625V36.0625H69.8516V38.7266Z" fill="white"/>
<path d="M78.6822 33.0938H77.2759C77.2838 33.2839 77.3463 33.4635 77.4634 33.6328C77.5806 33.8021 77.7564 33.9505 77.9908 34.0781C78.2252 34.2031 78.5129 34.2969 78.8541 34.3594L78.4634 35.125C78.0702 35.0495 77.733 34.9271 77.4517 34.7578C77.1705 34.5885 76.9491 34.3815 76.7877 34.1367C76.6262 34.4076 76.4009 34.6367 76.1119 34.8242C75.8254 35.0117 75.4791 35.1458 75.0728 35.2266L74.6666 34.4531C75.0129 34.388 75.3046 34.2878 75.5416 34.1523C75.7785 34.0169 75.9556 33.8581 76.0728 33.6758C76.1926 33.4935 76.2577 33.2995 76.2681 33.0938H74.8541V32.3203H76.2759V31.625H77.2759V32.3203H78.6822V33.0938ZM80.4009 38.7188H79.4166V31.6172H80.4009V38.7188ZM74.4244 35.5312C75.3332 35.5312 76.1548 35.5195 76.8892 35.4961C77.6262 35.4701 78.3254 35.4141 78.9869 35.3281L79.0494 36.0469C78.4817 36.1458 77.8879 36.2174 77.2681 36.2617V38.5H76.2759V36.3164C75.7473 36.3294 75.2916 36.3359 74.9088 36.3359H74.5494L74.4244 35.5312Z" fill="white"/>
<path d="M88.5909 32.5703C88.5909 32.9349 88.5818 33.2773 88.5636 33.5977C88.5454 33.9154 88.4998 34.2682 88.4269 34.6562L87.4503 34.5625C87.5493 34.0182 87.604 33.4766 87.6144 32.9375H84.9347V32.125H88.5909V32.5703ZM86.8253 35.1289C87.6326 35.0924 88.3331 35.0312 88.9269 34.9453L88.9816 35.6641C88.3279 35.7839 87.6469 35.8633 86.9386 35.9023C86.2303 35.9414 85.4503 35.9635 84.5988 35.9688L84.5128 35.1719C85.0779 35.1719 85.518 35.168 85.8331 35.1602V33.7656H86.8253V35.1289ZM90.3331 33.7734H91.1925V34.6094H90.3331V36.9297H89.3097V31.6094H90.3331V33.7734ZM90.5519 38.5938H85.5597V36.4531H86.5597V37.7969H90.5519V38.5938Z" fill="white"/>
<path d="M100.765 38.7344H99.7731V31.6094H100.765V38.7344ZM98.5622 34.9453H96.2184V36.25C96.7757 36.2474 97.2953 36.2279 97.777 36.1914C98.2614 36.1549 98.7575 36.0964 99.2653 36.0156L99.3512 36.8203C98.7992 36.9167 98.2497 36.9831 97.7028 37.0195C97.1559 37.0534 96.5309 37.0703 95.8278 37.0703H95.1872V34.1562H97.5466V33.0078H95.1794V32.2031H98.5622V34.9453Z" fill="white"/>
<path d="M111.487 36.0547H104.987V35.2734H107.737V34.8359H105.799V31.7812H110.729V32.5469H106.799V32.9453H110.565V33.6641H106.799V34.0703H110.791V34.8359H108.737V35.2734H111.487V36.0547ZM108.237 36.3828C108.757 36.3802 109.203 36.4245 109.573 36.5156C109.942 36.6042 110.224 36.7357 110.416 36.9102C110.612 37.0846 110.711 37.2969 110.713 37.5469C110.711 37.9271 110.494 38.2174 110.065 38.418C109.635 38.6185 109.026 38.7188 108.237 38.7188C107.434 38.7188 106.819 38.6185 106.389 38.418C105.959 38.2174 105.744 37.9271 105.744 37.5469C105.744 37.2969 105.841 37.0846 106.033 36.9102C106.229 36.7357 106.513 36.6042 106.885 36.5156C107.257 36.4245 107.708 36.3802 108.237 36.3828ZM108.237 37.1172C107.724 37.1172 107.346 37.1523 107.104 37.2227C106.862 37.2904 106.742 37.3984 106.744 37.5469C106.742 37.6979 106.86 37.8086 107.1 37.8789C107.342 37.9492 107.721 37.9844 108.237 37.9844C108.739 37.9844 109.11 37.9492 109.35 37.8789C109.589 37.8086 109.711 37.6979 109.713 37.5469C109.711 37.3984 109.589 37.2904 109.35 37.2227C109.11 37.1523 108.739 37.1172 108.237 37.1172Z" fill="white"/>
<path d="M120.841 33.3203H121.802V34.1484H120.841V35.7734H119.841V31.6094H120.841V33.3203ZM117.177 36.5859H119.841V36.0469H120.841V38.6406H116.184V36.0469H117.177V36.5859ZM119.841 37.8594V37.3516H117.177V37.8594H119.841ZM119.419 33.0156H115.2V32.2344H116.817V31.5625H117.809V32.2344H119.419V33.0156ZM117.309 33.2188C117.651 33.2188 117.954 33.2708 118.22 33.375C118.485 33.4792 118.691 33.6263 118.837 33.8164C118.985 34.0065 119.059 34.2266 119.059 34.4766C119.059 34.7266 118.985 34.9466 118.837 35.1367C118.691 35.3268 118.485 35.474 118.22 35.5781C117.954 35.6823 117.651 35.7344 117.309 35.7344C116.963 35.7344 116.656 35.6823 116.388 35.5781C116.122 35.474 115.915 35.3268 115.766 35.1367C115.618 34.9466 115.544 34.7266 115.544 34.4766C115.544 34.2266 115.618 34.0065 115.766 33.8164C115.915 33.6263 116.122 33.4792 116.388 33.375C116.656 33.2708 116.963 33.2188 117.309 33.2188ZM117.309 33.9531C117.067 33.9479 116.874 33.9922 116.731 34.0859C116.588 34.1797 116.518 34.3099 116.52 34.4766C116.518 34.6458 116.588 34.7773 116.731 34.8711C116.874 34.9622 117.067 35.0078 117.309 35.0078C117.554 35.0078 117.749 34.9622 117.895 34.8711C118.041 34.7773 118.114 34.6458 118.114 34.4766C118.114 34.3099 118.04 34.1797 117.891 34.0859C117.746 33.9922 117.552 33.9479 117.309 33.9531Z" fill="white"/>
<path d="M128.163 33.2188C128.163 33.6641 128.231 34.0951 128.367 34.5117C128.502 34.9258 128.704 35.2943 128.972 35.6172C129.243 35.9375 129.572 36.1797 129.96 36.3438L129.374 37.1406C128.979 36.9609 128.637 36.7044 128.351 36.3711C128.067 36.0352 127.842 35.6406 127.675 35.1875C127.508 35.6823 127.277 36.112 126.98 36.4766C126.686 36.8411 126.327 37.1198 125.906 37.3125L125.304 36.4844C125.705 36.3151 126.044 36.0638 126.32 35.7305C126.596 35.3945 126.803 35.0104 126.941 34.5781C127.081 34.1458 127.153 33.6927 127.156 33.2188V32.1562H128.163V33.2188ZM131.351 38.7344H130.343V31.6094H131.351V38.7344Z" fill="white"/>
<path d="M139.338 32.5469C139.338 32.901 139.438 33.2474 139.639 33.5859C139.842 33.9245 140.135 34.2188 140.518 34.4688C140.903 34.7188 141.353 34.888 141.869 34.9766L141.432 35.8047C140.822 35.6849 140.291 35.4622 139.838 35.1367C139.387 34.8112 139.045 34.4154 138.81 33.9492C138.571 34.4128 138.225 34.8073 137.771 35.1328C137.321 35.4583 136.794 35.6823 136.189 35.8047L135.76 34.9766C136.268 34.8854 136.712 34.7148 137.092 34.4648C137.472 34.2148 137.764 33.9206 137.967 33.582C138.17 33.2409 138.273 32.8958 138.275 32.5469V32.0312H139.338V32.5469ZM142.103 37.8438H135.596V37.0234H142.103V37.8438Z" fill="white"/>
<path d="M148.786 32.8359H147.028V33.3984H148.52V34.1641H147.028V34.7852C147.447 34.7773 147.808 34.763 148.11 34.7422C148.412 34.7188 148.718 34.6823 149.028 34.6328L149.129 35.4062C148.741 35.4714 148.361 35.5156 147.989 35.5391C147.616 35.5599 147.14 35.5703 146.559 35.5703H146.075V32.0312H148.786V32.8359ZM151.903 35.8516H150.958V31.6094H151.903V35.8516ZM150.489 35.8047H149.543V34.1172H148.825V33.3203H149.543V31.7188H150.489V35.8047ZM151.903 38.6406H147.051V36.1328H151.903V38.6406ZM148.043 37.8438H150.918V36.9141H148.043V37.8438Z" fill="white"/>
</svg>
