<svg width="186" height="24" viewBox="0 0 186 24" fill="none" xmlns="http://www.w3.org/2000/svg">
<g clip-path="url(#clip0_3_52)">
<path d="M2 6.5C2 4.01472 4.01472 2 6.5 2C8.98528 2 11 4.01472 11 6.5V9.5C11 9.84874 11 10.0231 10.9617 10.1662C10.8576 10.5544 10.5544 10.8576 10.1662 10.9617C10.0231 11 9.84874 11 9.5 11H6.5C4.01472 11 2 8.98528 2 6.5Z" fill="white"/>
<path d="M13 14.5C13 14.1513 13 13.9769 13.0383 13.8338C13.1424 13.4456 13.4456 13.1424 13.8338 13.0383C13.9769 13 14.1513 13 14.5 13H17.5C19.9853 13 22 15.0147 22 17.5C22 19.9853 19.9853 22 17.5 22C15.0147 22 13 19.9853 13 17.5V14.5Z" fill="white"/>
<path d="M2 17.5C2 15.0147 4.01472 13 6.5 13H9.2C9.83006 13 10.1451 13 10.3857 13.1226C10.5974 13.2305 10.7695 13.4026 10.8774 13.6143C11 13.8549 11 14.1699 11 14.8V17.5C11 19.9853 8.98528 22 6.5 22C4.01472 22 2 19.9853 2 17.5Z" fill="white"/>
<path d="M13 6.5C13 4.01472 15.0147 2 17.5 2C19.9853 2 22 4.01472 22 6.5C22 8.98528 19.9853 11 17.5 11H14.2857C14.1365 11 14.0618 11 13.999 10.9929C13.4775 10.9342 13.0658 10.5225 13.0071 10.001C13 9.93818 13 9.86355 13 9.71429V6.5Z" fill="white"/>
<path d="M35.1 2.74C35.74 2.74 36.3333 2.84 36.88 3.04C37.44 3.24 37.9333 3.52667 38.36 3.9C38.7733 4.27333 39.1 4.72667 39.34 5.26C39.58 5.79333 39.7 6.4 39.7 7.08C39.7 7.76 39.58 8.37333 39.34 8.92C39.1 9.45333 38.7733 9.9 38.36 10.26C37.9333 10.6333 37.44 10.92 36.88 11.12C36.3333 11.32 35.74 11.42 35.1 11.42C34.46 11.42 33.86 11.32 33.3 11.12C32.7533 10.92 32.2733 10.6333 31.86 10.26C31.4333 9.9 31.1 9.45333 30.86 8.92C30.62 8.37333 30.5 7.76 30.5 7.08C30.5 6.4 30.62 5.79333 30.86 5.26C31.1 4.72667 31.4333 4.27333 31.86 3.9C32.2733 3.52667 32.7533 3.24 33.3 3.04C33.86 2.84 34.46 2.74 35.1 2.74ZM35.1 10.16C35.46 10.16 35.7933 10.0933 36.1 9.96C36.42 9.81333 36.7 9.60667 36.94 9.34C37.1667 9.08667 37.3467 8.76667 37.48 8.38C37.6133 7.99333 37.68 7.56 37.68 7.08C37.68 6.6 37.6133 6.16667 37.48 5.78C37.3467 5.39333 37.1667 5.06667 36.94 4.8C36.7 4.54667 36.42 4.35333 36.1 4.22C35.7933 4.07333 35.46 4 35.1 4C34.74 4 34.4067 4.07333 34.1 4.22C33.7933 4.35333 33.5267 4.54667 33.3 4.8C33.06 5.06667 32.8733 5.39333 32.74 5.78C32.6067 6.16667 32.54 6.6 32.54 7.08C32.54 7.56 32.6067 7.99333 32.74 8.38C32.8733 8.76667 33.06 9.08667 33.3 9.34C33.5267 9.60667 33.7933 9.81333 34.1 9.96C34.4067 10.0933 34.74 10.16 35.1 10.16ZM47.26 6.28V7.28C47.26 7.36 47.2333 7.43333 47.18 7.5C47.14 7.55333 47.0867 7.58 47.02 7.58H44.6V10.7C44.6 11.2067 44.5333 11.6133 44.4 11.92C44.2667 12.2267 43.9533 12.38 43.46 12.38H42.54V3.08C42.54 2.74667 42.6133 2.53333 42.76 2.44C42.92 2.33333 43.16 2.28 43.48 2.28H44.6V6.28H47.26ZM44.36 13.54V18C44.36 18.5067 44.2933 18.9133 44.16 19.22C44.0267 19.5267 43.7133 19.68 43.22 19.68H42.3V14.8H32.92V13.8C32.92 13.6267 32.9933 13.54 33.14 13.54H44.36ZM58.1633 3.96V4.26C58.1633 4.46 58.1233 4.69333 58.0433 4.96C57.9633 5.22667 57.8299 5.52 57.6433 5.84C57.4433 6.17333 57.1766 6.53333 56.8433 6.92C56.5233 7.29333 56.1166 7.68667 55.6233 8.1L59.1033 9.2L58.7433 10.4L54.1033 8.96C53.4499 9.28 52.7033 9.58667 51.8633 9.88C51.0233 10.16 50.0833 10.4067 49.0433 10.62V9.36C50.1366 9.05333 51.0766 8.71333 51.8633 8.34C52.6499 7.96667 53.3166 7.59333 53.8633 7.22C54.3966 6.84667 54.8166 6.48667 55.1233 6.14C55.4433 5.79333 55.6699 5.5 55.8033 5.26H49.5033V4.26C49.5033 4.06 49.5766 3.96 49.7233 3.96H52.8433V2.38C52.8433 2.19333 52.8899 2.02667 52.9833 1.88C53.0899 1.72 53.3499 1.64 53.7633 1.64H54.9233V3.96H58.1633ZM63.3433 17.82C63.3433 18.3267 63.2699 18.74 63.1233 19.06C62.9899 19.3667 62.6766 19.52 62.1833 19.52H61.2633V12.96C60.9433 13.08 60.5899 13.18 60.2033 13.26C59.8299 13.3267 59.4566 13.3867 59.0833 13.44C58.6966 13.4933 58.3299 13.5333 57.9833 13.56C57.6499 13.5733 57.3633 13.58 57.1233 13.58H55.0833V17.34C55.0833 17.8467 55.0099 18.2533 54.8633 18.56C54.7299 18.8667 54.4166 19.02 53.9233 19.02H53.0033V13.58H48.0633V12.5C48.0633 12.38 48.1699 12.32 48.3833 12.32H57.2633C57.4766 12.32 57.7433 12.3133 58.0633 12.3C58.3966 12.2733 58.7499 12.24 59.1233 12.2C59.4966 12.16 59.8699 12.1067 60.2433 12.04C60.6166 11.96 60.9566 11.86 61.2633 11.74V3.08C61.2633 2.76 61.3433 2.54667 61.5033 2.44C61.6633 2.33333 61.9033 2.28 62.2233 2.28H63.3433V17.82ZM81.8461 11.62V12.6C81.8461 12.6667 81.8194 12.7333 81.7661 12.8C81.7128 12.8533 81.6528 12.88 81.5861 12.88H65.2461V11.88C65.2461 11.7067 65.3261 11.62 65.4861 11.62H72.5061V9.54H69.1461C68.5328 9.54 68.0861 9.39333 67.8061 9.1C67.5261 8.79333 67.3861 8.32 67.3861 7.68V3.06C67.3861 2.88667 67.4728 2.8 67.6461 2.8H79.2061V3.7C79.2061 3.76667 79.1794 3.83333 79.1261 3.9C79.0728 3.95333 79.0128 3.98 78.9461 3.98H69.4661V5.52H78.9661V6.48C78.9661 6.65333 78.8794 6.74 78.7061 6.74H69.4661V7.36C69.4661 7.74667 69.5061 8.01333 69.5861 8.16C69.6794 8.29333 69.9194 8.36 70.3061 8.36H79.4461V9.26C79.4461 9.44667 79.3594 9.54 79.1861 9.54H74.5661V11.62H81.8461ZM73.4861 13.94C74.3261 13.94 75.1261 14 75.8861 14.12C76.6594 14.24 77.3394 14.42 77.9261 14.66C78.4994 14.9133 78.9594 15.2333 79.3061 15.62C79.6528 16.0067 79.8261 16.46 79.8261 16.98C79.8261 17.5 79.6528 17.9533 79.3061 18.34C78.9594 18.7133 78.4994 19.0267 77.9261 19.28C77.3394 19.52 76.6594 19.7 75.8861 19.82C75.1261 19.94 74.3261 20 73.4861 20C72.6461 20 71.8394 19.94 71.0661 19.82C70.3061 19.7 69.6394 19.52 69.0661 19.28C68.4794 19.0267 68.0128 18.7133 67.6661 18.34C67.3328 17.9533 67.1661 17.5 67.1661 16.98C67.1661 16.46 67.3328 16.0067 67.6661 15.62C68.0128 15.2333 68.4794 14.9133 69.0661 14.66C69.6394 14.42 70.3061 14.24 71.0661 14.12C71.8394 14 72.6461 13.94 73.4861 13.94ZM73.4861 18.86C74.0461 18.86 74.5661 18.82 75.0461 18.74C75.5394 18.66 75.9661 18.5467 76.3261 18.4C76.6861 18.24 76.9661 18.0467 77.1661 17.82C77.3794 17.58 77.4861 17.3 77.4861 16.98C77.4861 16.6733 77.3794 16.4 77.1661 16.16C76.9661 15.92 76.6861 15.72 76.3261 15.56C75.9661 15.4 75.5394 15.28 75.0461 15.2C74.5661 15.12 74.0461 15.08 73.4861 15.08C72.9394 15.08 72.4261 15.12 71.9461 15.2C71.4661 15.28 71.0461 15.4 70.6861 15.56C70.3261 15.72 70.0394 15.92 69.8261 16.16C69.6261 16.4 69.5261 16.6733 69.5261 16.98C69.5261 17.3 69.6261 17.58 69.8261 17.82C70.0394 18.0467 70.3261 18.24 70.6861 18.4C71.0461 18.5467 71.4661 18.66 71.9461 18.74C72.4261 18.82 72.9394 18.86 73.4861 18.86ZM82.8438 4.96V3.96C82.8438 3.78667 82.9304 3.7 83.1038 3.7H86.8438V2.52C86.8438 2.32 86.8904 2.14667 86.9838 2C87.0904 1.84 87.3371 1.76 87.7238 1.76H88.8838V3.7H90.4038C90.8438 3.7 91.1971 3.69333 91.4638 3.68C91.7438 3.66667 91.9771 3.64667 92.1638 3.62C92.3371 3.59333 92.4838 3.56667 92.6038 3.54C92.7371 3.5 92.8771 3.46 93.0238 3.42V4.38C93.0238 4.54 92.9704 4.66 92.8638 4.74C92.7704 4.82 92.6438 4.87333 92.4838 4.9C92.3104 4.94 92.1171 4.96 91.9038 4.96C91.6904 4.96 91.4704 4.96 91.2438 4.96C91.7104 5.34667 92.0238 5.78667 92.1838 6.28C92.3571 6.76 92.4437 7.19333 92.4437 7.58C92.4437 8.18 92.3238 8.72 92.0838 9.2C91.8571 9.66667 91.5371 10.06 91.1238 10.38C90.7104 10.7 90.2304 10.9467 89.6838 11.12C89.1371 11.28 88.5571 11.36 87.9438 11.36C87.3171 11.36 86.7304 11.28 86.1838 11.12C85.6504 10.9467 85.1771 10.7 84.7638 10.38C84.3504 10.06 84.0238 9.66667 83.7838 9.2C83.5571 8.72 83.4438 8.18 83.4438 7.58C83.4438 7.19333 83.5371 6.76 83.7238 6.28C83.9238 5.78667 84.2371 5.34667 84.6638 4.96H82.8438ZM87.9438 10.1C88.6904 10.1 89.2571 9.88 89.6438 9.44C90.0438 9 90.2438 8.38 90.2438 7.58C90.2438 6.79333 90.0438 6.19333 89.6438 5.78C89.2571 5.36667 88.6904 5.16 87.9438 5.16C87.1838 5.16 86.6038 5.36667 86.2038 5.78C85.8171 6.19333 85.6238 6.79333 85.6238 7.58C85.6238 8.38 85.8171 9 86.2038 9.44C86.6038 9.88 87.1838 10.1 87.9438 10.1ZM97.2238 5.96H99.8838V6.92C99.8838 7.12 99.8038 7.22 99.6438 7.22H97.2238V10.06C97.2238 10.5667 97.1571 10.9867 97.0238 11.32C96.8904 11.64 96.5771 11.8 96.0838 11.8H95.1638V3.08C95.1638 2.76 95.2371 2.54667 95.3838 2.44C95.5438 2.33333 95.7838 2.28 96.1038 2.28H97.2238V5.96ZM96.9238 12.88V19.52H87.0238C86.4238 19.52 86.0171 19.3467 85.8038 19C85.5904 18.64 85.4838 18.18 85.4838 17.62V13.48C85.4838 13.1867 85.5638 13.0133 85.7238 12.96C85.8838 12.9067 86.1238 12.88 86.4438 12.88H87.4837V14.78H94.9238V13.48C94.9238 13.1867 94.9971 13.0133 95.1438 12.96C95.3038 12.9067 95.5438 12.88 95.8638 12.88H96.9238ZM94.9238 18.26V16.02H87.4837V17.26C87.4837 17.42 87.4837 17.56 87.4837 17.68C87.4837 17.8 87.5104 17.9 87.5638 17.98C87.6038 18.0733 87.6837 18.1467 87.8038 18.2C87.9238 18.24 88.1038 18.26 88.3438 18.26H94.9238ZM110.62 3.06V5.5C110.62 5.87333 110.6 6.26667 110.56 6.68C110.534 7.08 110.494 7.47333 110.44 7.86C110.374 8.24667 110.3 8.62 110.22 8.98C110.154 9.32667 110.087 9.62667 110.02 9.88H108.14C108.247 9.28 108.34 8.61333 108.42 7.88C108.514 7.13333 108.56 6.42 108.56 5.74V4.32H101.74V3.3C101.74 3.14 101.827 3.06 102 3.06H110.62ZM109.12 11.12C109.294 11.12 109.56 11.1133 109.92 11.1C110.294 11.0733 110.694 11.0333 111.12 10.98C111.534 10.9267 111.947 10.8667 112.36 10.8C112.774 10.72 113.114 10.6267 113.38 10.52V3.12C113.38 2.77333 113.454 2.54667 113.6 2.44C113.76 2.33333 114 2.28 114.32 2.28H115.44V6.94H118.1V7.92C118.1 8 118.074 8.07333 118.02 8.14C117.98 8.20667 117.92 8.24 117.84 8.24H115.44V13.04C115.44 13.5467 115.374 13.9533 115.24 14.26C115.107 14.5667 114.794 14.72 114.3 14.72H113.38V11.76C112.647 12.0267 111.887 12.2 111.1 12.28C110.314 12.3467 109.6 12.38 108.96 12.38H100.68V11.3C100.68 11.18 100.787 11.12 101 11.12H103.74V8.32C103.74 8.12 103.794 7.94 103.9 7.78C104.007 7.62 104.274 7.54 104.7 7.54H105.72V11.12H109.12ZM115.42 18.22V19.26C115.42 19.4333 115.334 19.52 115.16 19.52H105.7C105.1 19.52 104.66 19.3733 104.38 19.08C104.114 18.7867 103.98 18.3133 103.98 17.66V14H105.2C105.4 14 105.554 14.0267 105.66 14.08C105.78 14.1333 105.867 14.2 105.92 14.28C105.96 14.3733 105.987 14.4733 106 14.58C106.014 14.6867 106.02 14.7933 106.02 14.9V17.16C106.02 17.4933 106.094 17.7533 106.24 17.94C106.387 18.1133 106.634 18.2067 106.98 18.22H115.42ZM128.203 14.24V15.18C128.203 15.2467 128.183 15.3133 128.143 15.38C128.103 15.4333 128.05 15.46 127.983 15.46H121.043C120.43 15.46 119.983 15.3133 119.703 15.02C119.436 14.7133 119.303 14.24 119.303 13.6V9.14C119.303 9.07333 119.323 9.01333 119.363 8.96C119.416 8.89333 119.476 8.86 119.543 8.86H125.423V4.7H119.303V3.76C119.303 3.69333 119.323 3.63333 119.363 3.58C119.416 3.51333 119.476 3.48 119.543 3.48H127.483V9.8C127.483 9.86667 127.456 9.93333 127.403 10C127.363 10.0533 127.31 10.08 127.243 10.08H121.383V13.1C121.383 13.26 121.383 13.4067 121.383 13.54C121.396 13.6733 121.436 13.7933 121.503 13.9C121.556 14.0067 121.643 14.0933 121.763 14.16C121.896 14.2133 122.083 14.24 122.323 14.24H128.203ZM132.903 17.82C132.903 18.3267 132.836 18.74 132.703 19.06C132.57 19.3667 132.256 19.52 131.763 19.52H130.843V3.08C130.843 2.76 130.916 2.54667 131.063 2.44C131.223 2.33333 131.463 2.28 131.783 2.28H132.903V17.82ZM143.597 14.72L139.657 10.66C139.377 11.0867 139.064 11.5067 138.717 11.92C138.37 12.3333 137.99 12.7267 137.577 13.1C137.15 13.4733 136.69 13.82 136.197 14.14C135.704 14.4467 135.17 14.7067 134.597 14.92V13.56C135.17 13.1867 135.717 12.7467 136.237 12.24C136.757 11.7333 137.217 11.12 137.617 10.4C138.004 9.68 138.31 8.84 138.537 7.88C138.777 6.90667 138.897 5.77333 138.897 4.48V4.34C138.897 3.58 139.217 3.2 139.857 3.2H141.097V4.48C141.097 4.66667 141.09 4.94667 141.077 5.32C141.064 5.68 141.037 6.08667 140.997 6.54C140.944 7.00667 140.864 7.48667 140.757 7.98C140.65 8.47333 140.504 8.94 140.317 9.38L144.557 13.72L143.597 14.72ZM148.857 2.28V17.82C148.857 18.3267 148.79 18.74 148.657 19.06C148.524 19.3667 148.21 19.52 147.717 19.52H146.797V3.08C146.797 2.76 146.87 2.54667 147.017 2.44C147.177 2.33333 147.417 2.28 147.737 2.28H148.857ZM165.354 12.08L159.094 8.36C158.547 9.04 157.934 9.62667 157.254 10.12C156.574 10.6 155.901 11 155.234 11.32C154.567 11.6533 153.941 11.9133 153.354 12.1C152.781 12.2867 152.327 12.42 151.994 12.5V11.26C152.954 10.86 153.767 10.44 154.434 10C155.101 9.56 155.654 9.11333 156.094 8.66C156.534 8.22 156.881 7.78 157.134 7.34C157.387 6.9 157.581 6.48 157.714 6.08C157.834 5.69333 157.907 5.33333 157.934 5C157.961 4.65333 157.974 4.36 157.974 4.12C157.974 3.41333 158.287 3.06 158.914 3.06H160.354V4.48C160.354 4.90667 160.301 5.34 160.194 5.78C160.101 6.22 159.967 6.66667 159.794 7.12L166.054 10.86L165.354 12.08ZM150.754 16.5C150.754 16.3533 150.841 16.2667 151.014 16.24H167.374V17.22C167.374 17.2867 167.347 17.3533 167.294 17.42C167.241 17.4733 167.181 17.5 167.114 17.5H150.754V16.5ZM176.151 10.26V11.24C176.151 11.3067 176.124 11.3733 176.071 11.44C176.031 11.4933 175.978 11.52 175.911 11.52H170.711C170.111 11.52 169.671 11.3733 169.391 11.08C169.111 10.7733 168.971 10.3 168.971 9.66V3.52C168.971 3.45333 168.998 3.38667 169.051 3.32C169.104 3.25333 169.164 3.22 169.231 3.22H175.911V4.24C175.911 4.30667 175.884 4.37333 175.831 4.44C175.791 4.49333 175.738 4.52 175.671 4.52H170.911V6.76H175.671V7.76C175.671 7.82667 175.644 7.88667 175.591 7.94C175.551 7.99333 175.498 8.02 175.431 8.02H170.911V9.36C170.911 9.72 170.964 9.96 171.071 10.08C171.178 10.2 171.444 10.26 171.871 10.26H176.151ZM178.131 6.72V3.2C178.131 2.86667 178.211 2.64667 178.371 2.54C178.531 2.43333 178.778 2.38 179.111 2.38H180.091V10.6C180.091 11.1067 180.018 11.5133 179.871 11.82C179.738 12.1267 179.424 12.28 178.931 12.28H178.131V7.98H176.291V7C176.291 6.93333 176.311 6.87333 176.351 6.82C176.404 6.75333 176.471 6.72 176.551 6.72H178.131ZM183.991 2.28V10.68C183.991 11.1867 183.924 11.6 183.791 11.92C183.658 12.2267 183.344 12.38 182.851 12.38H182.051V3.08C182.051 2.76 182.124 2.54667 182.271 2.44C182.431 2.33333 182.671 2.28 182.991 2.28H183.991ZM183.571 13.54V19.24C183.571 19.3067 183.551 19.3733 183.511 19.44C183.471 19.4933 183.411 19.52 183.331 19.52H173.871C173.258 19.52 172.811 19.3733 172.531 19.08C172.264 18.7733 172.131 18.3 172.131 17.66V13.82C172.131 13.7533 172.151 13.6933 172.191 13.64C172.244 13.5733 172.304 13.54 172.371 13.54H183.571ZM174.191 17.2C174.191 17.5333 174.251 17.8 174.371 18C174.504 18.2 174.764 18.3 175.151 18.3H181.511V14.78H174.191V17.2Z" fill="white"/>
</g>
<defs>
<clipPath id="clip0_3_52">
<rect width="186" height="24" fill="white"/>
</clipPath>
</defs>
</svg>
