<svg width="153" height="32" viewBox="0 0 153 32" fill="none" xmlns="http://www.w3.org/2000/svg">
<g clip-path="url(#clip0_12_326)">
<path d="M64.3596 11.5006L64.9897 15.3263L81.4633 14.417C81.2643 16.1626 80.9541 18.0118 80.5324 19.967L84.9475 20.4052C85.3573 18.5866 85.6628 16.8952 85.8618 15.3334C86.0608 13.7715 86.1863 12.4076 86.2408 11.2415C86.2929 10.0754 86.3237 8.72088 86.3355 7.17317V4.03772H65.3379V7.64432H81.8423C81.8423 8.64785 81.8115 9.75503 81.7475 10.9682L64.3596 11.5006Z" fill="white"/>
<path d="M76.0582 16.9871H71.5484V23.7291H62.3748V27.397H88.7634V23.7291H76.0582V16.9871Z" fill="white"/>
<path d="M100.516 14.1343H89.9856V18.2097H100.516V14.1343Z" fill="white"/>
<path d="M109.119 25.4228H125.23V17.583H104.579V21.0011H120.721V22.2238H104.609V30.2191H126.239V26.7703H109.119V25.4228Z" fill="white"/>
<path d="M125.048 9.18021C125.105 8.10365 125.136 6.80801 125.136 5.29093V2.68787H104.894V6.20023H120.595L120.578 7.51708L104.074 7.79976L104.579 11.2179L120.375 10.6219C120.311 11.2485 120.216 11.9293 120.091 12.6596H101.805V16.2332H128.037V12.6596H124.631C124.851 11.4158 124.991 10.2568 125.048 9.17785V9.18021Z" fill="white"/>
<path d="M152.273 1.77856H147.765V22.9753H152.273V1.77856Z" fill="white"/>
<path d="M137.204 26.4571V21.1591H132.663V30.0637H153V26.4571H137.204Z" fill="white"/>
<path d="M146.159 18.5229L145.686 14.9163C144.025 15.2509 142.344 15.4747 140.64 15.5901C138.937 15.7055 136.72 15.7738 133.987 15.795V13.0365H142.94V3.63013H129.508V7.17312H138.461V9.74556H129.539V19.4346H132.125C135.541 19.4346 138.26 19.3757 140.283 19.2532C142.306 19.1331 144.264 18.8904 146.155 18.5253L146.159 18.5229Z" fill="white"/>
<path d="M0 16.7704C6.79553 19.5383 15.1804 23.9247 22.1938 15.9435C29.2049 7.96236 32.3149 4.4759 45.1101 8.78921C35.5314 0.0542282 27.5421 -3.43223 19.6618 4.2262C11.7838 11.8823 9.86761 17.7056 0 16.7704Z" fill="white"/>
<path d="M10.3367 23.4206C19.7708 30.933 26.8553 35.8588 35.6026 28.0213C44.3498 20.1838 45.5791 14.2168 55.3378 15.4394C45.0723 10.1556 38.5302 9.79515 31.8436 17.5242C25.157 25.2533 22.4829 26.655 10.3367 23.4206Z" fill="white"/>
</g>
<defs>
<clipPath id="clip0_12_326">
<rect width="153" height="32" fill="white"/>
</clipPath>
</defs>
</svg>
