<svg width="158" height="40" viewBox="0 0 158 40" fill="none" xmlns="http://www.w3.org/2000/svg">
<path d="M0 20.6946C6.76401 23.4498 15.11 27.8158 22.0909 19.8716C29.0694 11.9275 32.165 8.45721 44.9008 12.7505C35.3666 4.05605 27.4144 0.58577 19.5706 8.20867C11.7291 15.8292 9.82183 21.6255 0 20.6946Z" fill="white"/>
<path d="M10.2888 27.3139C19.6792 34.7914 26.7308 39.6944 35.4375 31.8933C44.1442 24.0922 45.3678 18.1528 55.0812 19.3698C44.8633 14.1104 38.3515 13.7517 31.696 21.4449C25.0404 29.1382 22.3787 30.5333 10.2888 27.3139Z" fill="white"/>
<path d="M62.1829 9.72205L62.8129 13.5477L79.2866 12.6384C79.0876 14.384 78.7773 16.2332 78.3557 18.1885L82.7708 18.6266C83.1805 16.808 83.4861 15.1166 83.6851 13.5548C83.884 11.993 84.0096 10.629 84.064 9.46292C84.1161 8.29685 84.1469 6.94231 84.1588 5.39461V2.25916H63.1611V5.86575H79.6655C79.6655 6.86929 79.6347 7.97647 79.5708 9.18966L62.1829 9.72205Z" fill="white"/>
<path d="M73.8814 15.2085H69.3716V21.9505H60.198V25.6184H86.5866V21.9505H73.8814V15.2085Z" fill="white"/>
<path d="M100 12H90V16H100V12Z" fill="white"/>
<path d="M110.942 23.6443H127.054V15.8044H106.402V19.2226H122.544V20.4452H106.433V28.4405H128.063V24.9917H110.942V23.6443Z" fill="white"/>
<path d="M126.871 7.40165C126.928 6.32509 126.959 5.02944 126.959 3.51236V0.909302H106.717V4.42167H122.418L122.402 5.73851L105.897 6.0212L106.402 9.43934L122.198 8.84334C122.134 9.46996 122.039 10.1508 121.914 10.881H103.628V14.4547H129.86V10.881H126.454C126.675 9.63722 126.814 8.47821 126.871 7.39929V7.40165Z" fill="white"/>
<path d="M156.096 0H151.589V21.1967H156.096V0Z" fill="white"/>
<path d="M141.027 24.6785V19.3805H136.486V28.2851H156.823V24.6785H141.027Z" fill="white"/>
<path d="M149.983 16.7444L149.509 13.1378C147.848 13.4723 146.167 13.6961 144.464 13.8115C142.761 13.9269 140.544 13.9953 137.81 14.0165V11.2579H146.764V1.85156H133.331V5.39455H142.285V7.96699H133.362V17.656H135.949C139.364 17.656 142.083 17.5971 144.106 17.4747C146.129 17.3545 148.088 17.1119 149.978 16.7467L149.983 16.7444Z" fill="white"/>
<path d="M62.2812 32.2768C62.6889 32.2738 63.0585 32.356 63.39 32.5232C63.7244 32.6904 63.987 32.9236 64.1777 33.2228C64.3683 33.5191 64.4637 33.852 64.4637 34.2217C64.4637 34.6001 64.3683 34.9389 64.1777 35.2381C63.987 35.5344 63.7259 35.7661 63.3944 35.9333C63.0629 36.1005 62.6919 36.1842 62.2812 36.1842C61.8675 36.1842 61.4935 36.1005 61.1591 35.9333C60.8247 35.7661 60.5607 35.5344 60.3671 35.2381C60.1764 34.9389 60.0811 34.6001 60.0811 34.2217C60.0811 33.852 60.1764 33.5191 60.3671 33.2228C60.5607 32.9236 60.8247 32.6904 61.1591 32.5232C61.4965 32.356 61.8705 32.2738 62.2812 32.2768ZM62.2812 33.236C62.07 33.236 61.8807 33.2756 61.7135 33.3548C61.5463 33.4311 61.4158 33.544 61.3219 33.6936C61.231 33.8432 61.187 34.0192 61.1899 34.2217C61.187 34.4299 61.231 34.6103 61.3219 34.7629C61.4158 34.9154 61.5463 35.0328 61.7135 35.1149C61.8807 35.1941 62.07 35.2337 62.2812 35.2337C62.4865 35.2337 62.6713 35.1941 62.8356 35.1149C62.9999 35.0328 63.1289 34.9154 63.2228 34.7629C63.3196 34.6103 63.3695 34.4299 63.3724 34.2217C63.3695 34.0192 63.3196 33.8432 63.2228 33.6936C63.1289 33.544 62.9999 33.4311 62.8356 33.3548C62.6713 33.2756 62.4865 33.236 62.2812 33.236ZM66.3822 33.72H67.4646V34.6353H66.3822V36.5186H65.2557V31.8367H66.3822V33.72ZM66.3822 39.8539H65.2557V37.7594H60.9875V36.853H66.3822V39.8539Z" fill="white"/>
<path d="M77.7713 33.5088H76.1873C76.1961 33.723 76.2665 33.9254 76.3985 34.1161C76.5305 34.3067 76.7285 34.4739 76.9925 34.6177C77.2565 34.7585 77.5807 34.8641 77.9649 34.9345L77.5249 35.7969C77.082 35.7119 76.7021 35.574 76.3853 35.3833C76.0685 35.1926 75.8191 34.9594 75.6372 34.6837C75.4554 34.9888 75.2016 35.2469 74.876 35.4581C74.5533 35.6693 74.1632 35.8204 73.7055 35.9113L73.2479 35.0401C73.6381 34.9668 73.9666 34.8538 74.2336 34.7013C74.5005 34.5487 74.7 34.3698 74.832 34.1645C74.9669 33.9591 75.0403 33.7406 75.052 33.5088H73.4591V32.6376H75.0608V31.8543H76.1873V32.6376H77.7713V33.5088ZM79.7074 39.8451H78.5986V31.8455H79.7074V39.8451ZM72.9751 36.2546C73.9989 36.2546 74.9244 36.2414 75.7516 36.215C76.5818 36.1856 77.3695 36.1226 78.1146 36.0257L78.185 36.8354C77.5455 36.9469 76.8766 37.0275 76.1785 37.0774V39.5987H75.0608V37.139C74.4653 37.1537 73.9519 37.161 73.5207 37.161H73.1159L72.9751 36.2546Z" fill="white"/>
<path d="M93.1911 36.8442H85.8691V35.9641H88.9669V35.4713H86.7844V32.0303H92.3375V32.8928H87.9108V33.3416H92.1527V34.1513H87.9108V34.6089H92.4079V35.4713H90.0934V35.9641H93.1911V36.8442ZM89.5301 37.2138C90.1168 37.2109 90.6185 37.2607 91.035 37.3634C91.4516 37.4632 91.7684 37.6113 91.9855 37.8078C92.2055 38.0044 92.3169 38.2435 92.3199 38.5251C92.3169 38.9534 92.0735 39.2804 91.5894 39.5063C91.1054 39.7322 90.419 39.8451 89.5301 39.8451C88.6266 39.8451 87.9329 39.7322 87.4488 39.5063C86.9648 39.2804 86.7228 38.9534 86.7228 38.5251C86.7228 38.2435 86.8313 38.0044 87.0484 37.8078C87.2684 37.6113 87.5882 37.4632 88.0077 37.3634C88.4271 37.2607 88.9346 37.2109 89.5301 37.2138ZM89.5301 38.041C88.9522 38.041 88.5269 38.0806 88.2541 38.1599C87.9813 38.2361 87.8463 38.3579 87.8492 38.5251C87.8463 38.6952 87.9798 38.8199 88.2497 38.8991C88.5225 38.9783 88.9493 39.0179 89.5301 39.0179C90.0963 39.0179 90.5143 38.9783 90.7842 38.8991C91.0541 38.8199 91.1905 38.6952 91.1934 38.5251C91.1905 38.3579 91.0541 38.2361 90.7842 38.1599C90.5143 38.0806 90.0963 38.041 89.5301 38.041Z" fill="white"/>
<path d="M105.17 33.764H106.252V34.6969H105.17V36.5274H104.043V31.8367H105.17V33.764ZM101.043 37.4426H104.043V36.8354H105.17V39.7571H99.9249V36.8354H101.043V37.4426ZM104.043 38.8771V38.3051H101.043V38.8771H104.043ZM103.568 33.4208H98.816V32.5408H100.638V31.7839H101.755V32.5408H103.568V33.4208ZM101.192 33.6496C101.576 33.6496 101.918 33.7083 102.217 33.8256C102.517 33.943 102.748 34.1087 102.913 34.3229C103.08 34.537 103.163 34.7849 103.163 35.0665C103.163 35.3481 103.08 35.596 102.913 35.8101C102.748 36.0243 102.517 36.19 102.217 36.3074C101.918 36.4247 101.576 36.4834 101.192 36.4834C100.802 36.4834 100.456 36.4247 100.154 36.3074C99.8544 36.19 99.6212 36.0243 99.454 35.8101C99.2868 35.596 99.2032 35.3481 99.2032 35.0665C99.2032 34.7849 99.2868 34.537 99.454 34.3229C99.6212 34.1087 99.8544 33.943 100.154 33.8256C100.456 33.7083 100.802 33.6496 101.192 33.6496ZM101.192 34.4769C100.919 34.471 100.702 34.5209 100.541 34.6265C100.38 34.7321 100.3 34.8788 100.303 35.0665C100.3 35.2572 100.38 35.4053 100.541 35.5109C100.702 35.6136 100.919 35.6649 101.192 35.6649C101.468 35.6649 101.688 35.6136 101.852 35.5109C102.016 35.4053 102.099 35.2572 102.099 35.0665C102.099 34.8788 102.015 34.7321 101.848 34.6265C101.683 34.5209 101.465 34.471 101.192 34.4769Z" fill="white"/>
<path d="M119.076 38.9123H111.745V37.9794H119.076V38.9123ZM118.46 33.4384H117.334V35.8673H118.425V36.7474H112.352V35.8673H113.426V33.4384H112.317V32.5408H118.46V33.4384ZM116.225 35.8673V33.4384H114.553V35.8673H116.225Z" fill="white"/>
<path d="M132.005 38.9563H124.674V38.0322H127.763V36.8266H125.519V34.1337H130.052V33.2536H125.511V32.356H131.16V35.0137H126.646V35.9113H131.345V36.8266H128.881V38.0322H132.005V38.9563Z" fill="white"/>
<path d="M142.893 36.677H141.828V34.7233H140.939V33.8168H141.828V31.9951H142.893V36.677ZM140.129 33.5616C140.129 34.0134 140.248 34.4255 140.486 34.7981C140.726 35.1706 141.092 35.4508 141.582 35.6385L141.018 36.501C140.687 36.3719 140.402 36.1959 140.165 35.9729C139.93 35.7471 139.741 35.4831 139.597 35.1809C139.447 35.5183 139.245 35.8131 138.99 36.0653C138.738 36.3176 138.434 36.5156 138.079 36.6594L137.489 35.7705C137.841 35.6385 138.133 35.4567 138.365 35.2249C138.597 34.9932 138.767 34.7335 138.875 34.4461C138.984 34.1586 139.038 33.8608 139.038 33.5528V33.3152H137.762V32.4176H141.326V33.3152H140.129V33.5616ZM144.486 36.721H143.421V31.8367H144.486V36.721ZM144.486 39.8451H143.368V37.9002H138.95V37.0114H144.486V39.8451Z" fill="white"/>
<path d="M157.063 36.8618H151.395V32.4264H157.001V33.3328H152.539V34.1777H156.817V35.0577H152.539V35.9729H157.063V36.8618ZM157.864 38.9123H150.533V37.997H157.864V38.9123Z" fill="white"/>
</svg>
