<svg width="29" height="28" viewBox="0 0 29 28" fill="none" xmlns="http://www.w3.org/2000/svg">
<path d="M2.8335 7.58333C2.8335 4.68384 5.184 2.33333 8.0835 2.33333C10.983 2.33333 13.3335 4.68384 13.3335 7.58333V11.0833C13.3335 11.4902 13.3335 11.6936 13.2888 11.8605C13.1674 12.3135 12.8136 12.6672 12.3607 12.7886C12.1938 12.8333 11.9904 12.8333 11.5835 12.8333H8.0835C5.184 12.8333 2.8335 10.4828 2.8335 7.58333Z" fill="white"/>
<path d="M15.6668 16.9167C15.6668 16.5098 15.6668 16.3064 15.7116 16.1395C15.8329 15.6865 16.1867 15.3328 16.6396 15.2114C16.8065 15.1667 17.01 15.1667 17.4168 15.1667H20.9168C23.8163 15.1667 26.1668 17.5172 26.1668 20.4167C26.1668 23.3162 23.8163 25.6667 20.9168 25.6667C18.0173 25.6667 15.6668 23.3162 15.6668 20.4167V16.9167Z" fill="white"/>
<path d="M2.8335 20.4167C2.8335 17.5172 5.184 15.1667 8.0835 15.1667H11.2335C11.9686 15.1667 12.3361 15.1667 12.6169 15.3097C12.8638 15.4356 13.0646 15.6363 13.1904 15.8833C13.3335 16.1641 13.3335 16.5316 13.3335 17.2667V20.4167C13.3335 23.3162 10.983 25.6667 8.0835 25.6667C5.184 25.6667 2.8335 23.3162 2.8335 20.4167Z" fill="white"/>
<path d="M15.6668 7.58333C15.6668 4.68384 18.0173 2.33333 20.9168 2.33333C23.8163 2.33333 26.1668 4.68384 26.1668 7.58333C26.1668 10.4828 23.8163 12.8333 20.9168 12.8333H17.1668C16.9927 12.8333 16.9056 12.8333 16.8324 12.8251C16.2239 12.7565 15.7436 12.2763 15.6751 11.6678C15.6668 11.5945 15.6668 11.5075 15.6668 11.3333V7.58333Z" fill="white"/>
</svg>
