<svg width="187" height="44" viewBox="0 0 187 44" fill="none" xmlns="http://www.w3.org/2000/svg">
<path d="M0 22.7713C6.79553 25.5393 15.1804 29.9256 22.1938 21.9444C29.2049 13.9633 32.3149 10.4768 45.1101 14.7901C35.5314 6.05517 27.5421 2.56871 19.6618 10.2271C11.7838 17.8832 9.86761 23.7065 0 22.7713Z" fill="#359735"/>
<path d="M10.3366 29.4215C19.7707 36.9338 26.8552 41.8596 35.6025 34.0222C44.3497 26.1847 45.5791 20.2177 55.3377 21.4403C45.0722 16.1565 38.5301 15.796 31.8435 23.5251C25.1569 31.2542 22.4828 32.6559 10.3366 29.4215Z" fill="#4574B0"/>
<path d="M75.5252 10.8438C75.4315 9.94792 75.0408 9.25 74.3533 8.75C73.6658 8.25 72.7544 8 71.619 8C70.8377 8 70.1658 8.11458 69.6033 8.34375C69.0512 8.5625 68.6294 8.86979 68.3377 9.26562C68.046 9.66146 67.9002 10.1146 67.9002 10.625C67.9002 11.3542 68.2283 11.9375 68.8846 12.375C69.5408 12.8125 70.421 13.1562 71.5252 13.4062L73.5565 13.9062C75.6502 14.375 77.3012 15.151 78.5096 16.2344C79.7283 17.3073 80.3377 18.7396 80.3377 20.5312C80.3377 21.9167 79.9887 23.1198 79.2908 24.1406C78.5929 25.151 77.5877 25.9323 76.2752 26.4844C74.9627 27.0365 73.4002 27.3125 71.5877 27.3125C69.7544 27.3125 68.1606 27.0312 66.8065 26.4688C65.4627 25.9062 64.4158 25.0781 63.6658 23.9844C62.9262 22.8802 62.5356 21.5312 62.494 19.9375H67.0565C67.1294 21.0521 67.5669 21.9062 68.369 22.5C69.1815 23.0833 70.2335 23.375 71.5252 23.375C72.3377 23.375 73.0512 23.2552 73.6658 23.0156C74.2804 22.776 74.7544 22.4427 75.0877 22.0156C75.421 21.5885 75.5877 21.0938 75.5877 20.5312C75.5877 19.8021 75.27 19.224 74.6346 18.7969C74.0096 18.3698 73.0356 17.9896 71.7127 17.6562L69.244 17.0625C65.1398 16.0521 63.0877 14 63.0877 10.9062C63.0877 9.55208 63.4523 8.35938 64.1815 7.32812C64.921 6.28646 65.9419 5.48438 67.244 4.92188C68.546 4.34896 70.0148 4.0625 71.6502 4.0625C73.296 4.0625 74.7492 4.34896 76.0096 4.92188C77.27 5.49479 78.2492 6.29688 78.9471 7.32812C79.645 8.34896 80.0044 9.52083 80.0252 10.8438H75.5252ZM104.119 15.6875C104.119 18.0833 103.661 20.1615 102.744 21.9219C101.827 23.6719 100.567 25.0104 98.9627 25.9375C97.369 26.8542 95.5669 27.3125 93.5565 27.3125C91.5356 27.3125 89.7231 26.849 88.119 25.9219C86.5148 24.9948 85.2544 23.6562 84.3377 21.9062C83.421 20.1458 82.9627 18.0729 82.9627 15.6875C82.9627 13.2917 83.421 11.2188 84.3377 9.46875C85.2544 7.70833 86.5148 6.36979 88.119 5.45312C89.7231 4.52604 91.5356 4.0625 93.5565 4.0625C95.5669 4.0625 97.369 4.52604 98.9627 5.45312C100.567 6.36979 101.827 7.70833 102.744 9.46875C103.661 11.2188 104.119 13.2917 104.119 15.6875ZM99.3377 15.6875C99.3377 14.0938 99.0981 12.7396 98.619 11.625C98.1502 10.5104 97.4835 9.66667 96.619 9.09375C95.7544 8.51042 94.7335 8.21875 93.5565 8.21875C92.3794 8.21875 91.3533 8.51042 90.4783 9.09375C89.6137 9.66667 88.9419 10.5156 88.4627 11.6406C87.9835 12.7552 87.744 14.1042 87.744 15.6875C87.744 17.2708 87.9835 18.625 88.4627 19.75C88.9419 20.8646 89.6137 21.7135 90.4783 22.2969C91.3533 22.8698 92.3794 23.1562 93.5565 23.1562C94.7335 23.1562 95.7544 22.8698 96.619 22.2969C97.4835 21.7135 98.1502 20.8646 98.619 19.75C99.0981 18.6354 99.3377 17.2812 99.3377 15.6875ZM113.306 4.375L119.588 19.7188H119.838L126.119 4.375H131.931V27H127.369V12.1875H127.181L121.275 26.9062H118.15L112.244 12.125H112.056V27H107.494V4.375H113.306ZM145.338 15.0625C145.244 14.4688 144.947 13.9948 144.447 13.6406C143.947 13.276 143.317 13.0938 142.556 13.0938C142.056 13.0938 141.603 13.1719 141.197 13.3281C140.801 13.474 140.489 13.6823 140.26 13.9531C140.03 14.2135 139.921 14.5104 139.931 14.8438C139.9 15.6458 140.629 16.2083 142.119 16.5312L145.15 17.1562C146.796 17.5 148.02 18.0469 148.822 18.7969C149.635 19.5469 150.046 20.5312 150.056 21.75C150.046 22.8542 149.723 23.8281 149.088 24.6719C148.463 25.5156 147.582 26.1719 146.447 26.6406C145.312 27.1094 144.004 27.3438 142.525 27.3438C141.015 27.3438 139.707 27.1302 138.603 26.7031C137.499 26.2656 136.629 25.6458 135.994 24.8438C135.369 24.0312 134.994 23.0729 134.869 21.9688H139.525C139.629 22.6354 139.942 23.1406 140.463 23.4844C140.984 23.8281 141.671 24 142.525 24C143.369 24 144.046 23.8385 144.556 23.5156C145.077 23.1927 145.338 22.7604 145.338 22.2188C145.338 21.7812 145.15 21.4271 144.775 21.1562C144.411 20.875 143.827 20.6458 143.025 20.4688L140.213 19.9062C138.609 19.5938 137.39 19.026 136.556 18.2031C135.723 17.3802 135.317 16.3438 135.338 15.0938C135.327 14.0208 135.614 13.0885 136.197 12.2969C136.78 11.4948 137.614 10.8802 138.697 10.4531C139.78 10.026 141.046 9.8125 142.494 9.8125C143.9 9.8125 145.129 10.026 146.181 10.4531C147.234 10.8802 148.056 11.4896 148.65 12.2812C149.254 13.0625 149.598 13.9896 149.681 15.0625H145.338ZM155.619 33.375C154.65 33.375 153.869 33.3438 153.275 33.2812V29.6875C154.067 29.7292 154.692 29.75 155.15 29.75C155.515 29.75 155.817 29.7188 156.056 29.6562C156.306 29.5938 156.541 29.4479 156.76 29.2188C156.989 28.9896 157.192 28.6458 157.369 28.1875L157.65 27.4688L151.556 10.0312H156.4L159.963 22.5312H160.15L163.744 10.0312H168.65L162.025 28.875C161.515 30.3229 160.749 31.4323 159.728 32.2031C158.707 32.9844 157.338 33.375 155.619 33.375ZM180.588 15.0625C180.494 14.4688 180.197 13.9948 179.697 13.6406C179.197 13.276 178.567 13.0938 177.806 13.0938C177.306 13.0938 176.853 13.1719 176.447 13.3281C176.051 13.474 175.739 13.6823 175.51 13.9531C175.28 14.2135 175.171 14.5104 175.181 14.8438C175.15 15.6458 175.879 16.2083 177.369 16.5312L180.4 17.1562C182.046 17.5 183.27 18.0469 184.072 18.7969C184.885 19.5469 185.296 20.5312 185.306 21.75C185.296 22.8542 184.973 23.8281 184.338 24.6719C183.713 25.5156 182.832 26.1719 181.697 26.6406C180.562 27.1094 179.254 27.3438 177.775 27.3438C176.265 27.3438 174.957 27.1302 173.853 26.7031C172.749 26.2656 171.879 25.6458 171.244 24.8438C170.619 24.0312 170.244 23.0729 170.119 21.9688H174.775C174.879 22.6354 175.192 23.1406 175.713 23.4844C176.234 23.8281 176.921 24 177.775 24C178.619 24 179.296 23.8385 179.806 23.5156C180.327 23.1927 180.588 22.7604 180.588 22.2188C180.588 21.7812 180.4 21.4271 180.025 21.1562C179.661 20.875 179.077 20.6458 178.275 20.4688L175.463 19.9062C173.859 19.5938 172.64 19.026 171.806 18.2031C170.973 17.3802 170.567 16.3438 170.588 15.0938C170.577 14.0208 170.864 13.0885 171.447 12.2969C172.03 11.4948 172.864 10.8802 173.947 10.4531C175.03 10.026 176.296 9.8125 177.744 9.8125C179.15 9.8125 180.379 10.026 181.431 10.4531C182.484 10.8802 183.306 11.4896 183.9 12.2812C184.504 13.0625 184.848 13.9896 184.931 15.0625H180.588Z" fill="black"/>
<path d="M66.6662 36.1836C66.6662 36.6263 66.7916 37.0592 67.0422 37.4824C67.2961 37.9056 67.6623 38.2734 68.1408 38.5859C68.6226 38.8984 69.1858 39.11 69.8303 39.2207L69.2834 40.2559C68.5217 40.1061 67.8576 39.8278 67.2912 39.4209C66.7281 39.014 66.3 38.5192 66.007 37.9365C65.7076 38.516 65.2746 39.0091 64.7082 39.416C64.1451 39.8229 63.4859 40.1029 62.7307 40.2559L62.1936 39.2207C62.8283 39.1068 63.3833 38.8936 63.8586 38.5811C64.3339 38.2686 64.6985 37.9007 64.9524 37.4775C65.2063 37.0511 65.3348 36.6198 65.3381 36.1836V35.5391H66.6662V36.1836ZM70.1233 42.8047H61.9885V41.7793H70.1233V42.8047ZM79.3819 41.7305H75.1143V35.8516H79.3819V41.7305ZM76.3447 40.7441H78.1416V36.8281H76.3447V40.7441ZM81.8428 38.3613H83.1514V39.3965H81.8428V43.8984H80.5928V35.0117H81.8428V38.3613ZM94.9197 40.5879H88.6307V35.666H94.8514V36.6719H89.9002V37.6094H94.6463V38.5859H89.9002V39.6016H94.9197V40.5879ZM95.8084 42.8633H87.6736V41.8477H95.8084V42.8633ZM103.016 35.5C103.469 35.4967 103.879 35.5879 104.247 35.7734C104.618 35.959 104.909 36.2178 105.121 36.5498C105.332 36.8786 105.438 37.248 105.438 37.6582C105.438 38.0781 105.332 38.4541 105.121 38.7861C104.909 39.1149 104.619 39.3721 104.252 39.5576C103.884 39.7432 103.472 39.8359 103.016 39.8359C102.557 39.8359 102.142 39.7432 101.771 39.5576C101.4 39.3721 101.107 39.1149 100.892 38.7861C100.681 38.4541 100.575 38.0781 100.575 37.6582C100.575 37.248 100.681 36.8786 100.892 36.5498C101.107 36.2178 101.4 35.959 101.771 35.7734C102.145 35.5879 102.56 35.4967 103.016 35.5ZM103.016 36.5645C102.782 36.5645 102.572 36.6084 102.386 36.6963C102.201 36.7809 102.056 36.9062 101.952 37.0723C101.851 37.2383 101.802 37.4336 101.805 37.6582C101.802 37.8893 101.851 38.0895 101.952 38.2588C102.056 38.4281 102.201 38.5583 102.386 38.6494C102.572 38.7373 102.782 38.7812 103.016 38.7812C103.244 38.7812 103.449 38.7373 103.631 38.6494C103.814 38.5583 103.957 38.4281 104.061 38.2588C104.169 38.0895 104.224 37.8893 104.227 37.6582C104.224 37.4336 104.169 37.2383 104.061 37.0723C103.957 36.9062 103.814 36.7809 103.631 36.6963C103.449 36.6084 103.244 36.5645 103.016 36.5645ZM107.567 37.1016H108.768V38.1172H107.567V40.207H106.317V35.0117H107.567V37.1016ZM107.567 43.9082H106.317V41.584H101.581V40.5781H107.567V43.9082ZM118.701 36.8672H116.943C116.953 37.1048 117.031 37.3294 117.177 37.541C117.324 37.7526 117.543 37.9382 117.836 38.0977C118.129 38.2539 118.489 38.3711 118.915 38.4492L118.427 39.4062C117.936 39.3118 117.514 39.1589 117.163 38.9473C116.811 38.7357 116.534 38.4769 116.332 38.1709C116.131 38.5094 115.849 38.7959 115.488 39.0303C115.13 39.2646 114.697 39.4323 114.189 39.5332L113.681 38.5664C114.114 38.485 114.479 38.3597 114.775 38.1904C115.071 38.0212 115.292 37.8226 115.439 37.5947C115.589 37.3669 115.67 37.1243 115.683 36.8672H113.915V35.9004H115.693V35.0312H116.943V35.9004H118.701V36.8672ZM120.849 43.8984H119.619V35.0215H120.849V43.8984ZM113.378 39.9141C114.514 39.9141 115.541 39.8994 116.459 39.8701C117.381 39.8376 118.255 39.7676 119.081 39.6602L119.16 40.5586C118.45 40.6823 117.708 40.7718 116.933 40.8271V43.625H115.693V40.8955C115.032 40.9118 114.462 40.9199 113.984 40.9199H113.535L113.378 39.9141ZM131.182 36.2129C131.182 36.6686 131.17 37.0967 131.148 37.4971C131.125 37.8942 131.068 38.3353 130.977 38.8203L129.756 38.7031C129.88 38.0228 129.948 37.3457 129.961 36.6719H126.612V35.6562H131.182V36.2129ZM128.975 39.4111C129.984 39.3656 130.86 39.2891 131.602 39.1816L131.67 40.0801C130.853 40.2298 130.002 40.3291 129.116 40.3779C128.231 40.4268 127.256 40.4544 126.192 40.4609L126.084 39.4648C126.791 39.4648 127.341 39.46 127.735 39.4502V37.707H128.975V39.4111ZM133.36 37.7168H134.434V38.7617H133.36V41.6621H132.08V35.0117H133.36V37.7168ZM133.633 43.7422H127.393V41.0664H128.643V42.7461H133.633V43.7422ZM146.495 43.918H145.255V35.0117H146.495V43.918ZM143.741 39.1816H140.812V40.8125C141.508 40.8092 142.158 40.7848 142.76 40.7393C143.365 40.6937 143.985 40.6204 144.62 40.5195L144.728 41.5254C144.037 41.6458 143.351 41.7288 142.667 41.7744C141.983 41.8167 141.202 41.8379 140.323 41.8379H139.522V38.1953H142.472V36.7598H139.513V35.7539H143.741V39.1816ZM155.344 37.0234C155.344 37.5801 155.428 38.1188 155.597 38.6396C155.767 39.1572 156.019 39.6178 156.354 40.0215C156.693 40.4219 157.105 40.7246 157.59 40.9297L156.857 41.9258C156.362 41.7012 155.936 41.3805 155.578 40.9639C155.223 40.5439 154.942 40.0508 154.733 39.4844C154.525 40.1029 154.235 40.64 153.864 41.0957C153.496 41.5514 153.049 41.8997 152.521 42.1406L151.769 41.1055C152.271 40.8939 152.694 40.5798 153.039 40.1631C153.384 39.7432 153.643 39.263 153.815 38.7227C153.991 38.1823 154.081 37.6159 154.084 37.0234V35.6953H155.344V37.0234ZM159.328 43.918H158.068V35.0117H159.328V43.918ZM169.407 36.1836C169.407 36.6263 169.532 37.0592 169.783 37.4824C170.037 37.9056 170.403 38.2734 170.881 38.5859C171.363 38.8984 171.926 39.11 172.571 39.2207L172.024 40.2559C171.262 40.1061 170.598 39.8278 170.032 39.4209C169.469 39.014 169.041 38.5192 168.748 37.9365C168.448 38.516 168.015 39.0091 167.449 39.416C166.886 39.8229 166.227 40.1029 165.471 40.2559L164.934 39.2207C165.569 39.1068 166.124 38.8936 166.599 38.5811C167.074 38.2686 167.439 37.9007 167.693 37.4775C167.947 37.0511 168.075 36.6198 168.079 36.1836V35.5391H169.407V36.1836ZM172.864 42.8047H164.729V41.7793H172.864V42.8047ZM181.312 36.5449H179.115V37.248H180.98V38.2051H179.115V38.9814C179.639 38.9717 180.09 38.9538 180.467 38.9277C180.845 38.8984 181.227 38.8529 181.615 38.791L181.742 39.7578C181.257 39.8392 180.781 39.8945 180.316 39.9238C179.85 39.9499 179.255 39.9629 178.529 39.9629H177.923V35.5391H181.312V36.5449ZM185.208 40.3145H184.027V35.0117H185.208V40.3145ZM183.441 40.2559H182.259V38.1465H181.361V37.1504H182.259V35.1484H183.441V40.2559ZM185.208 43.8008H179.144V40.666H185.208V43.8008ZM180.384 42.8047H183.978V41.6426H180.384V42.8047Z" fill="black"/>
</svg>
