<svg width="151" height="38" viewBox="0 0 151 38" fill="none" xmlns="http://www.w3.org/2000/svg">
<path d="M67.3596 9.72205L67.9897 13.5477L84.4633 12.6384C84.2643 14.384 83.9541 16.2332 83.5324 18.1885L87.9475 18.6266C88.3573 16.808 88.6628 15.1166 88.8618 13.5548C89.0608 11.993 89.1863 10.629 89.2408 9.46292C89.2929 8.29685 89.3237 6.94231 89.3355 5.39461V2.25916H68.3379V5.86575H84.8423C84.8423 6.86929 84.8115 7.97647 84.7475 9.18966L67.3596 9.72205Z" fill="white"/>
<path d="M79.0582 15.2085H74.5484V21.9505H65.3748V25.6184H91.7634V21.9505H79.0582V15.2085Z" fill="white"/>
<path d="M98 12.2214H92V16.2214H98V12.2214Z" fill="white"/>
<path d="M107.119 23.6443H123.23V15.8044H102.579V19.2226H118.721V20.4452H102.609V28.4405H124.239V24.9917H107.119V23.6443Z" fill="white"/>
<path d="M123.048 7.40165C123.105 6.32509 123.136 5.02944 123.136 3.51236V0.909302H102.894V4.42167H118.595L118.578 5.73851L102.074 6.0212L102.579 9.43934L118.375 8.84334C118.311 9.46996 118.216 10.1508 118.091 10.881H99.8049V14.4547H126.037V10.881H122.631C122.851 9.63722 122.991 8.47821 123.048 7.39929V7.40165Z" fill="white"/>
<path d="M150.273 0H145.765V21.1967H150.273V0Z" fill="white"/>
<path d="M135.204 24.6785V19.3805H130.663V28.2851H151V24.6785H135.204Z" fill="white"/>
<path d="M144.159 16.7444L143.686 13.1378C142.025 13.4723 140.344 13.6961 138.64 13.8115C136.937 13.9269 134.72 13.9953 131.987 14.0165V11.2579H140.94V1.85156H127.508V5.39455H136.461V7.96699H127.539V17.656H130.125C133.541 17.656 136.26 17.5971 138.283 17.4747C140.306 17.3545 142.264 17.1119 144.155 16.7467L144.159 16.7444Z" fill="white"/>
<path d="M67.2109 31C67.5729 30.9974 67.901 31.0703 68.1953 31.2188C68.4922 31.3672 68.7253 31.5742 68.8945 31.8398C69.0638 32.1029 69.1484 32.3984 69.1484 32.7266C69.1484 33.0625 69.0638 33.3633 68.8945 33.6289C68.7253 33.8919 68.4935 34.0977 68.1992 34.2461C67.9049 34.3945 67.5755 34.4688 67.2109 34.4688C66.8438 34.4688 66.5117 34.3945 66.2148 34.2461C65.918 34.0977 65.6836 33.8919 65.5117 33.6289C65.3424 33.3633 65.2578 33.0625 65.2578 32.7266C65.2578 32.3984 65.3424 32.1029 65.5117 31.8398C65.6836 31.5742 65.918 31.3672 66.2148 31.2188C66.5143 31.0703 66.8464 30.9974 67.2109 31ZM67.2109 31.8516C67.0234 31.8516 66.8555 31.8867 66.707 31.957C66.5586 32.0247 66.4427 32.125 66.3594 32.2578C66.2786 32.3906 66.2396 32.5469 66.2422 32.7266C66.2396 32.9115 66.2786 33.0716 66.3594 33.207C66.4427 33.3424 66.5586 33.4466 66.707 33.5195C66.8555 33.5898 67.0234 33.625 67.2109 33.625C67.3932 33.625 67.5573 33.5898 67.7031 33.5195C67.849 33.4466 67.9635 33.3424 68.0469 33.207C68.1328 33.0716 68.1771 32.9115 68.1797 32.7266C68.1771 32.5469 68.1328 32.3906 68.0469 32.2578C67.9635 32.125 67.849 32.0247 67.7031 31.957C67.5573 31.8867 67.3932 31.8516 67.2109 31.8516ZM70.8516 32.2812H71.8125V33.0938H70.8516V34.7656H69.8516V30.6094H70.8516V32.2812ZM70.8516 37.7266H69.8516V35.8672H66.0625V35.0625H70.8516V37.7266Z" fill="white"/>
<path d="M82.5697 32.0938H81.1634C81.1713 32.2839 81.2337 32.4635 81.3509 32.6328C81.4681 32.8021 81.6439 32.9505 81.8783 33.0781C82.1127 33.2031 82.4004 33.2969 82.7416 33.3594L82.3509 34.125C81.9577 34.0495 81.6205 33.9271 81.3392 33.7578C81.058 33.5885 80.8366 33.3815 80.6752 33.1367C80.5137 33.4076 80.2884 33.6367 79.9994 33.8242C79.7129 34.0117 79.3666 34.1458 78.9603 34.2266L78.5541 33.4531C78.9004 33.388 79.1921 33.2878 79.4291 33.1523C79.666 33.0169 79.8431 32.8581 79.9603 32.6758C80.0801 32.4935 80.1452 32.2995 80.1556 32.0938H78.7416V31.3203H80.1634V30.625H81.1634V31.3203H82.5697V32.0938ZM84.2884 37.7188H83.3041V30.6172H84.2884V37.7188ZM78.3119 34.5312C79.2207 34.5312 80.0423 34.5195 80.7767 34.4961C81.5137 34.4701 82.2129 34.4141 82.8744 34.3281L82.9369 35.0469C82.3692 35.1458 81.7754 35.2174 81.1556 35.2617V37.5H80.1634V35.3164C79.6348 35.3294 79.1791 35.3359 78.7963 35.3359H78.4369L78.3119 34.5312Z" fill="white"/>
<path d="M97.8659 35.0547H91.3659V34.2734H94.1159V33.8359H92.1784V30.7812H97.1081V31.5469H93.1784V31.9453H96.9441V32.6641H93.1784V33.0703H97.1706V33.8359H95.1159V34.2734H97.8659V35.0547ZM94.6159 35.3828C95.1368 35.3802 95.5821 35.4245 95.9519 35.5156C96.3217 35.6042 96.6029 35.7357 96.7956 35.9102C96.9909 36.0846 97.0899 36.2969 97.0925 36.5469C97.0899 36.9271 96.8738 37.2174 96.4441 37.418C96.0144 37.6185 95.405 37.7188 94.6159 37.7188C93.8139 37.7188 93.198 37.6185 92.7683 37.418C92.3386 37.2174 92.1238 36.9271 92.1238 36.5469C92.1238 36.2969 92.2201 36.0846 92.4128 35.9102C92.6081 35.7357 92.892 35.6042 93.2644 35.5156C93.6368 35.4245 94.0873 35.3802 94.6159 35.3828ZM94.6159 36.1172C94.1029 36.1172 93.7253 36.1523 93.4831 36.2227C93.2409 36.2904 93.1211 36.3984 93.1238 36.5469C93.1211 36.6979 93.2396 36.8086 93.4792 36.8789C93.7214 36.9492 94.1003 36.9844 94.6159 36.9844C95.1185 36.9844 95.4896 36.9492 95.7292 36.8789C95.9688 36.8086 96.0899 36.6979 96.0925 36.5469C96.0899 36.3984 95.9688 36.2904 95.7292 36.2227C95.4896 36.1523 95.1185 36.1172 94.6159 36.1172Z" fill="white"/>
<path d="M110.107 32.3203H111.068V33.1484H110.107V34.7734H109.107V30.6094H110.107V32.3203ZM106.443 35.5859H109.107V35.0469H110.107V37.6406H105.451V35.0469H106.443V35.5859ZM109.107 36.8594V36.3516H106.443V36.8594H109.107ZM108.686 32.0156H104.467V31.2344H106.084V30.5625H107.076V31.2344H108.686V32.0156ZM106.576 32.2188C106.917 32.2188 107.221 32.2708 107.486 32.375C107.752 32.4792 107.958 32.6263 108.104 32.8164C108.252 33.0065 108.326 33.2266 108.326 33.4766C108.326 33.7266 108.252 33.9466 108.104 34.1367C107.958 34.3268 107.752 34.474 107.486 34.5781C107.221 34.6823 106.917 34.7344 106.576 34.7344C106.23 34.7344 105.923 34.6823 105.654 34.5781C105.389 34.474 105.182 34.3268 105.033 34.1367C104.885 33.9466 104.811 33.7266 104.811 33.4766C104.811 33.2266 104.885 33.0065 105.033 32.8164C105.182 32.6263 105.389 32.4792 105.654 32.375C105.923 32.2708 106.23 32.2188 106.576 32.2188ZM106.576 32.9531C106.334 32.9479 106.141 32.9922 105.998 33.0859C105.855 33.1797 105.785 33.3099 105.787 33.4766C105.785 33.6458 105.855 33.7773 105.998 33.8711C106.141 33.9622 106.334 34.0078 106.576 34.0078C106.821 34.0078 107.016 33.9622 107.162 33.8711C107.308 33.7773 107.381 33.6458 107.381 33.4766C107.381 33.3099 107.307 33.1797 107.158 33.0859C107.012 32.9922 106.818 32.9479 106.576 32.9531Z" fill="white"/>
<path d="M120.318 32.2188C120.318 32.6641 120.386 33.0951 120.521 33.5117C120.656 33.9258 120.858 34.2943 121.126 34.6172C121.397 34.9375 121.727 35.1797 122.115 35.3438L121.529 36.1406C121.133 35.9609 120.792 35.7044 120.505 35.3711C120.221 35.0352 119.996 34.6406 119.83 34.1875C119.663 34.6823 119.431 35.112 119.134 35.4766C118.84 35.8411 118.482 36.1198 118.06 36.3125L117.458 35.4844C117.859 35.3151 118.198 35.0638 118.474 34.7305C118.75 34.3945 118.957 34.0104 119.095 33.5781C119.236 33.1458 119.307 32.6927 119.31 32.2188V31.1562H120.318V32.2188ZM123.505 37.7344H122.498V30.6094H123.505V37.7344Z" fill="white"/>
<path d="M134.38 31.5469C134.38 31.901 134.48 32.2474 134.68 32.5859C134.884 32.9245 135.177 33.2188 135.559 33.4688C135.945 33.7188 136.395 33.888 136.911 33.9766L136.473 34.8047C135.864 34.6849 135.333 34.4622 134.88 34.1367C134.429 33.8112 134.087 33.4154 133.852 32.9492C133.613 33.4128 133.266 33.8073 132.813 34.1328C132.363 34.4583 131.835 34.6823 131.231 34.8047L130.802 33.9766C131.309 33.8854 131.753 33.7148 132.134 33.4648C132.514 33.2148 132.805 32.9206 133.009 32.582C133.212 32.2409 133.315 31.8958 133.317 31.5469V31.0312H134.38V31.5469ZM137.145 36.8438H130.637V36.0234H137.145V36.8438Z" fill="white"/>
<path d="M146.715 31.8359H144.957V32.3984H146.449V33.1641H144.957V33.7852C145.376 33.7773 145.737 33.763 146.039 33.7422C146.341 33.7188 146.647 33.6823 146.957 33.6328L147.059 34.4062C146.671 34.4714 146.291 34.5156 145.918 34.5391C145.546 34.5599 145.069 34.5703 144.488 34.5703H144.004V31.0312H146.715V31.8359ZM149.832 34.8516H148.887V30.6094H149.832V34.8516ZM148.418 34.8047H147.473V33.1172H146.754V32.3203H147.473V30.7188H148.418V34.8047ZM149.832 37.6406H144.981V35.1328H149.832V37.6406ZM145.973 36.8438H148.848V35.9141H145.973V36.8438Z" fill="white"/>
<path d="M0 19.3132C7.82586 22.5009 17.482 27.5522 25.5588 18.361C33.6329 9.16974 37.2144 5.15468 51.9496 10.122C40.9187 0.0625908 31.7181 -3.95248 22.6429 4.86711C13.5705 13.684 11.3637 20.3902 0 19.3132Z" fill="white"/>
<path d="M11.9038 26.9718C22.7684 35.6232 30.927 41.2958 41.0005 32.27C51.074 23.2443 52.4897 16.3725 63.728 17.7805C51.906 11.6955 44.372 11.2804 36.6716 20.1814C28.9712 29.0824 25.8916 30.6966 11.9038 26.9718Z" fill="white"/>
</svg>
