<svg width="25" height="24" viewBox="0 0 25 24" fill="none" xmlns="http://www.w3.org/2000/svg">
<path fill-rule="evenodd" clip-rule="evenodd" d="M12.5 2C8.08172 2 4.5 6.00258 4.5 10.5C4.5 14.9622 7.05332 19.8124 11.0371 21.6744C11.9657 22.1085 13.0343 22.1085 13.9629 21.6744C17.9467 19.8124 20.5 14.9622 20.5 10.5C20.5 6.00258 16.9183 2 12.5 2ZM12.5 12C13.6046 12 14.5 11.1046 14.5 10C14.5 8.89543 13.6046 8 12.5 8C11.3954 8 10.5 8.89543 10.5 10C10.5 11.1046 11.3954 12 12.5 12Z" fill="#359735"/>
</svg>
