<svg width="24" height="24" viewBox="0 0 24 24" fill="none" xmlns="http://www.w3.org/2000/svg">
<path d="M2 10C2 6.22876 2 4.34315 3.17157 3.17157C4.34315 2 6.22876 2 10 2H14C17.7712 2 19.6569 2 20.8284 3.17157C22 4.34315 22 6.22876 22 10V11C22 13.8284 22 15.2426 21.1213 16.1213C20.2426 17 18.8284 17 16 17H8C5.17157 17 3.75736 17 2.87868 16.1213C2 15.2426 2 13.8284 2 11V10Z" stroke="black" stroke-width="1.5"/>
<path d="M16 22H8" stroke="black" stroke-width="1.5" stroke-linecap="round"/>
<path d="M12 17L12 22" stroke="black" stroke-width="1.5" stroke-linecap="round"/>
<path d="M22 13H2" stroke="black" stroke-width="1.5" stroke-linecap="round"/>
<path d="M13.0049 4.88672H13.9717V7.91895H14.0508L16.7139 4.88672H17.9268L15.3604 7.75195L17.9355 11.25H16.7666L14.7188 8.41113L13.9717 9.27246V11.25H13.0049V4.88672Z" fill="black"/>
<path d="M11.915 8.06836C11.915 8.73047 11.792 9.30908 11.5459 9.8042C11.2998 10.2964 10.9585 10.6758 10.522 10.9424C10.0884 11.2061 9.59766 11.3379 9.0498 11.3379C8.49609 11.3379 8.00098 11.2061 7.56445 10.9424C7.13086 10.6758 6.79102 10.2964 6.54492 9.8042C6.29883 9.30908 6.17578 8.73047 6.17578 8.06836C6.17578 7.40332 6.29883 6.82471 6.54492 6.33252C6.79102 5.8374 7.13086 5.45801 7.56445 5.19434C8.00098 4.93066 8.49609 4.79883 9.0498 4.79883C9.59766 4.79883 10.0884 4.93066 10.522 5.19434C10.9585 5.45801 11.2998 5.8374 11.5459 6.33252C11.792 6.82471 11.915 7.40332 11.915 8.06836ZM10.957 8.06836C10.957 7.56445 10.875 7.13379 10.7109 6.77637C10.5469 6.41895 10.3198 6.14795 10.0298 5.96338C9.74268 5.77881 9.41602 5.68652 9.0498 5.68652C8.68066 5.68652 8.35107 5.77881 8.06104 5.96338C7.771 6.14795 7.54395 6.41895 7.37988 6.77637C7.21582 7.13379 7.13379 7.56445 7.13379 8.06836C7.13379 8.57227 7.21582 9.00293 7.37988 9.36035C7.54395 9.71777 7.771 9.98877 8.06104 10.1733C8.35107 10.3579 8.68066 10.4502 9.0498 10.4502C9.41602 10.4502 9.74268 10.3579 10.0298 10.1733C10.3198 9.98877 10.5469 9.71777 10.7109 9.36035C10.875 9 10.957 8.56934 10.957 8.06836Z" fill="black"/>
</svg>
