<svg width="57" height="57" viewBox="0 0 57 57" fill="none" xmlns="http://www.w3.org/2000/svg">
<path d="M42.6666 19.5L44.8802 20.2378C47.1903 21.0079 48.3453 21.3929 49.006 22.3095C49.6666 23.2261 49.6666 24.4436 49.6666 26.8786V40.1009C49.6666 43.113 49.6666 44.6191 48.8739 45.5866C48.6047 45.9151 48.2779 46.192 47.9096 46.4035C46.8249 47.0264 45.3394 46.7788 42.3683 46.2836C39.4366 45.795 37.9708 45.5507 36.5179 45.6722C36.0081 45.7149 35.5015 45.7911 35.0016 45.9002C33.5773 46.2113 32.2365 46.8817 29.5547 48.2226C26.0554 49.9723 24.3057 50.8471 22.4432 51.1168C21.8823 51.198 21.3161 51.2382 20.7493 51.2371C18.8674 51.2336 17.0276 50.6203 13.348 49.3938L12.453 49.0954C10.143 48.3254 8.98793 47.9404 8.32728 47.0238C7.66663 46.1072 7.66663 44.8897 7.66663 42.4547V30.952C7.66663 27.0812 7.66663 25.1459 8.80626 24.105C9.00567 23.9228 9.2255 23.7644 9.46135 23.6328C10.8092 22.8808 12.6452 23.4928 16.3174 24.7169" stroke="white" stroke-width="3.5"/>
<path d="M14.6666 18.8007C14.6666 11.4549 20.9346 5.49997 28.6666 5.49997C36.3986 5.49997 42.6666 11.4549 42.6666 18.8007C42.6666 26.0889 38.1983 34.5936 31.2268 37.6349C29.6016 38.3439 27.7317 38.3439 26.1065 37.6349C19.1349 34.5936 14.6666 26.0889 14.6666 18.8007Z" stroke="white" stroke-width="3.5"/>
<circle cx="28.6666" cy="19.5" r="4.66667" stroke="white" stroke-width="3.5"/>
</svg>
